# xmcd
#
# Track frame offsets: 
#        150
#        15654
#        35973
#        56225
#        74487
#        91144
#        109712
#        126606
#        146232
#        164973
#        186222
#        208170
#        227749
#        244766
#
# Disc length: 3552 seconds
#
# Revision: 3
# Processed by: cddbd v1.5.2PL0 Copyright (c) Steve Scherf et al.
# Submitted via: ExactAudioCopyFreeDBPlugin 1.0
#
DISCID=e10dde0e
DTITLE=Brad Paisley - Hits Alive
DYEAR=2010
DGENRE=Country
TTITLE0=Mud On The Tires
TTITLE1=Ticks
TTITLE2=Anything Like Me
TTITLE3=The World
TTITLE4=Little Moments
TTITLE5=When I Get Where I'm Going (featuring Dolly Parton)
TTITLE6=Celebrity
TTITLE7=Then (Piano Mix)
TTITLE8=I'm Still A Guy
TTITLE9=He Didn't Have To Be
TTITLE10=Alcohol
TTITLE11=Whiskey Lullaby (featuring Alison Krauss)
TTITLE12=We Danced
TTITLE13=Online
EXTD=
EXTT0=
EXTT1=
EXTT2=
EXTT3=
EXTT4=
EXTT5=
EXTT6=
EXTT7=
EXTT8=
EXTT9=
EXTT10=
EXTT11=
EXTT12=
EXTT13=
PLAYORDER=
